<?xml version="1.0" standalone="no"?>
<!DOCTYPE svg PUBLIC "-//W3C//DTD SVG 20010904//EN"
 "http://www.w3.org/TR/2001/REC-SVG-20010904/DTD/svg10.dtd">
<svg version="1.0" xmlns="http://www.w3.org/2000/svg"
 width="700.000000pt" height="700.000000pt" viewBox="0 0 700.000000 700.000000"
 preserveAspectRatio="xMidYMid meet">
<metadata>
Created by potrace 1.14, written by Peter Selinger 2001-2017
</metadata>
<g transform="translate(0.000000,700.000000) scale(0.100000,-0.100000)"
fill="#000000" stroke="none">
<path d="M4530 5861 c-20 -11 -46 -37 -60 -62 -23 -42 -24 -51 -21 -199 1 -85
4 -193 6 -240 2 -47 6 -175 10 -285 8 -264 13 -408 20 -595 3 -85 7 -222 10
-305 13 -401 16 -480 20 -610 6 -167 13 -369 20 -600 3 -93 8 -226 10 -295 2
-69 7 -206 10 -305 6 -189 10 -242 25 -281 15 -39 86 -102 129 -114 56 -15
929 -13 973 2 50 17 97 57 120 102 18 35 20 51 14 130 -3 50 -8 102 -10 116
-2 14 -7 54 -11 90 -12 131 -34 340 -40 380 -2 14 -6 57 -10 95 -3 39 -8 81
-10 95 -2 14 -6 57 -10 95 -3 39 -8 81 -10 95 -2 14 -7 52 -10 85 -3 33 -8 78
-10 100 -2 22 -7 67 -10 100 -4 33 -8 74 -10 90 -2 17 -7 61 -10 98 -4 37 -8
76 -9 85 -2 9 -7 53 -11 97 -4 44 -8 87 -10 95 -2 8 -6 51 -9 95 -4 44 -9 87
-11 95 -2 8 -7 51 -10 94 -4 43 -8 87 -10 97 -2 10 -6 49 -10 86 -3 37 -8 79
-10 93 -2 14 -6 55 -10 92 -3 37 -7 75 -9 85 -2 10 -7 54 -10 98 -4 44 -9 94
-11 110 -3 17 -7 55 -10 86 -3 31 -7 72 -9 90 -3 19 -8 61 -11 94 -7 67 -14
135 -20 180 -2 17 -7 66 -10 110 -4 44 -9 88 -10 97 -2 9 -7 48 -10 85 -12
115 -17 133 -56 189 -17 26 -46 50 -73 63 -44 20 -59 21 -403 21 -329 -1 -361
-2 -393 -19z"/>
<path d="M3125 5441 c-45 -20 -91 -69 -111 -117 -13 -31 -18 -111 -29 -459 -3
-99 -8 -241 -10 -315 -3 -74 -7 -205 -10 -290 -3 -85 -7 -222 -10 -305 -6
-187 -13 -401 -20 -615 -3 -91 -7 -223 -10 -295 -5 -149 -14 -389 -20 -585 -2
-74 -7 -213 -10 -307 -14 -377 -13 -437 1 -478 17 -50 80 -110 130 -124 25 -7
199 -11 494 -11 421 0 458 2 496 19 51 23 92 64 111 109 14 34 14 154 -2 592
-3 81 -11 333 -20 600 -2 69 -7 197 -10 285 -11 317 -15 443 -20 620 -3 99 -7
223 -10 275 -2 52 -7 192 -11 310 -3 118 -7 258 -9 310 -2 52 -6 190 -10 305
-9 310 -13 346 -44 395 -21 34 -49 58 -93 81 -33 17 -63 18 -385 18 -315 0
-352 -1 -388 -18z"/>
<path d="M1694 5029 c-64 -19 -128 -102 -139 -184 -11 -76 -14 -102 -20 -165
-7 -65 -9 -88 -19 -190 -7 -61 -15 -137 -21 -190 -2 -19 -9 -82 -15 -140 -6
-58 -13 -121 -15 -140 -2 -19 -7 -62 -10 -95 -3 -33 -7 -76 -10 -95 -2 -19 -7
-59 -10 -87 -3 -29 -7 -77 -10 -105 -3 -29 -8 -69 -10 -88 -2 -19 -7 -64 -10
-100 -4 -36 -8 -76 -10 -90 -2 -14 -7 -54 -10 -90 -3 -36 -8 -76 -10 -90 -2
-14 -7 -59 -10 -100 -4 -41 -8 -86 -10 -100 -2 -14 -6 -54 -10 -90 -4 -36 -8
-76 -10 -90 -2 -14 -7 -58 -10 -98 -4 -41 -8 -81 -10 -91 -2 -10 -6 -51 -9
-92 -4 -41 -9 -85 -11 -99 -2 -14 -7 -54 -10 -90 -4 -36 -8 -78 -10 -95 -2
-16 -7 -59 -10 -95 -3 -36 -8 -76 -10 -90 -3 -14 -7 -56 -11 -95 -3 -38 -7
-81 -9 -95 -2 -14 -6 -56 -10 -95 -4 -38 -8 -81 -10 -95 -3 -14 -7 -56 -10
-93 -4 -37 -8 -77 -10 -88 -2 -11 -7 -63 -11 -114 -9 -128 7 -164 96 -226 l35
-24 491 0 490 0 42 27 c43 29 86 93 96 143 3 17 8 118 11 225 3 107 8 249 10
315 5 147 13 387 20 600 3 88 7 223 10 300 3 77 7 208 10 290 2 83 7 222 10
310 9 250 14 406 20 595 3 96 8 227 10 290 24 632 24 687 -6 740 -44 78 -48
79 -450 79 -195 0 -368 -5 -385 -10z"/>
</g>
</svg>
